<svg width="375" height="484" viewBox="0 0 375 484" fill="none" xmlns="http://www.w3.org/2000/svg">
<path fill-rule="evenodd" clip-rule="evenodd" d="M37.3019 128.603C62.1154 110.531 96.9558 137.289 128.018 139.967C162.509 142.941 206.446 117.163 229.025 145.135C252.571 174.305 229.436 217.665 218.935 252.601C212.545 273.862 183.712 281.861 181.23 304.148C176.617 345.563 229.076 398.755 199.596 426.221C173.489 450.544 137.214 391.583 103.65 376.427C82.0544 366.675 57.3426 368.405 38.5516 353.5C18.295 337.432 -0.440546 316.151 -4.59245 290.567C-8.68301 265.36 10.753 245.032 17.0184 220.81C25.0806 189.642 12.0013 147.03 37.3019 128.603Z" fill="url(#paint0_linear)"/>
<path fill-rule="evenodd" clip-rule="evenodd" d="M265.898 305.666C231.772 311.265 208.037 279.277 177.052 266.946C142.648 253.255 85.1074 258.414 74.6563 229.557C63.7575 199.464 107.87 173.979 134.969 150.75C151.46 136.614 185.083 140.045 197.995 123.831C221.99 93.7005 192.235 35.6729 235.56 24.4377C273.927 14.4882 284.214 71.5669 312.007 94.2645C329.889 108.868 356.329 115.727 368.911 133.341C382.475 152.33 392.043 174.799 384.484 195.731C377.036 216.353 347.443 225.457 329.709 241.898C306.888 263.054 300.694 299.956 265.898 305.666Z" fill="url(#paint1_linear)"/>
<defs>
<linearGradient id="paint0_linear" x1="55.9392" y1="118.125" x2="218.738" y2="416.668" gradientUnits="userSpaceOnUse">
<stop stop-color="#380036"/>
<stop offset="1" stop-color="#0CBABA" stop-opacity="0"/>
</linearGradient>
<linearGradient id="paint1_linear" x1="241.702" y1="307.505" x2="222.9" y2="24.6298" gradientUnits="userSpaceOnUse">
<stop stop-color="#380036"/>
<stop offset="1" stop-color="#0CBABA" stop-opacity="0"/>
</linearGradient>
</defs>
</svg>
