<svg width="30" height="30" viewBox="0 0 30 30" fill="none" xmlns="http://www.w3.org/2000/svg">
<path d="M15 28.125C11.519 28.125 8.18064 26.7422 5.71922 24.2808C3.25781 21.8194 1.875 18.481 1.875 15C1.875 11.519 3.25781 8.18064 5.71922 5.71922C8.18064 3.25781 11.519 1.875 15 1.875C18.481 1.875 21.8194 3.25781 24.2808 5.71922C26.7422 8.18064 28.125 11.519 28.125 15C28.125 18.481 26.7422 21.8194 24.2808 24.2808C21.8194 26.7422 18.481 28.125 15 28.125ZM15 30C18.9782 30 22.7936 28.4196 25.6066 25.6066C28.4196 22.7936 30 18.9782 30 15C30 11.0218 28.4196 7.20644 25.6066 4.3934C22.7936 1.58035 18.9782 0 15 0C11.0218 0 7.20644 1.58035 4.3934 4.3934C1.58035 7.20644 0 11.0218 0 15C0 18.9782 1.58035 22.7936 4.3934 25.6066C7.20644 28.4196 11.0218 30 15 30Z" fill="white"/>
<path d="M8.71122 8.71125C8.7983 8.62394 8.90176 8.55467 9.01565 8.50741C9.12955 8.46015 9.25165 8.43582 9.37497 8.43582C9.49828 8.43582 9.62038 8.46015 9.73428 8.50741C9.84818 8.55467 9.95163 8.62394 10.0387 8.71125L15 13.6744L19.9612 8.71125C20.0484 8.62408 20.1519 8.55494 20.2657 8.50777C20.3796 8.46059 20.5017 8.43631 20.625 8.43631C20.7482 8.43631 20.8703 8.46059 20.9842 8.50777C21.0981 8.55494 21.2016 8.62408 21.2887 8.71125C21.3759 8.79841 21.445 8.90189 21.4922 9.01578C21.5394 9.12966 21.5637 9.25173 21.5637 9.375C21.5637 9.49827 21.5394 9.62033 21.4922 9.73422C21.445 9.8481 21.3759 9.95158 21.2887 10.0387L16.3256 15L21.2887 19.9612C21.3759 20.0484 21.445 20.1519 21.4922 20.2658C21.5394 20.3797 21.5637 20.5017 21.5637 20.625C21.5637 20.7483 21.5394 20.8703 21.4922 20.9842C21.445 21.0981 21.3759 21.2016 21.2887 21.2887C21.2016 21.3759 21.0981 21.4451 20.9842 21.4922C20.8703 21.5394 20.7482 21.5637 20.625 21.5637C20.5017 21.5637 20.3796 21.5394 20.2657 21.4922C20.1519 21.4451 20.0484 21.3759 19.9612 21.2887L15 16.3256L10.0387 21.2887C9.95155 21.3759 9.84807 21.4451 9.73419 21.4922C9.6203 21.5394 9.49824 21.5637 9.37497 21.5637C9.2517 21.5637 9.12963 21.5394 9.01575 21.4922C8.90186 21.4451 8.79838 21.3759 8.71122 21.2887C8.62405 21.2016 8.55491 21.0981 8.50774 20.9842C8.46056 20.8703 8.43628 20.7483 8.43628 20.625C8.43628 20.5017 8.46056 20.3797 8.50774 20.2658C8.55491 20.1519 8.62405 20.0484 8.71122 19.9612L13.6743 15L8.71122 10.0387C8.62391 9.95166 8.55464 9.84821 8.50738 9.73431C8.46012 9.62041 8.43579 9.49831 8.43579 9.375C8.43579 9.25168 8.46012 9.12958 8.50738 9.01568C8.55464 8.90179 8.62391 8.79833 8.71122 8.71125Z" fill="white"/>
</svg>
