<svg width="32" height="40" viewBox="0 0 32 40" fill="none" xmlns="http://www.w3.org/2000/svg">
<path d="M1.84375 39.5C1.47079 39.5 1.1131 39.3288 0.849381 39.024C0.585658 38.7193 0.4375 38.306 0.4375 37.875V2.125C0.437542 1.84262 0.50126 1.56513 0.622375 1.31988C0.74349 1.07462 0.917821 0.870073 1.12818 0.726386C1.33855 0.582699 1.57768 0.504836 1.82202 0.500473C2.06635 0.496109 2.30746 0.565395 2.52156 0.701501L30.6466 18.5765C30.867 18.7168 31.0509 18.9229 31.179 19.1733C31.307 19.4236 31.3746 19.7092 31.3746 20C31.3746 20.2908 31.307 20.5764 31.179 20.8267C31.0509 21.0771 30.867 21.2832 30.6466 21.4235L2.52156 39.2985C2.31393 39.4306 2.08077 39.4999 1.84375 39.5ZM3.25 4.87125V35.1287L27.0508 20L3.25 4.87125Z" fill="white"/>
</svg>
