<svg width="30" height="34" viewBox="0 0 30 34" fill="none" xmlns="http://www.w3.org/2000/svg">
<path d="M8.75 0C9.61195 0 10.4386 0.34241 11.0481 0.951903C11.6576 1.5614 12 2.38805 12 3.25V30.75C12 31.612 11.6576 32.4386 11.0481 33.0481C10.4386 33.6576 9.61195 34 8.75 34H3.25C2.8232 34 2.40059 33.9159 2.00628 33.7526C1.61197 33.5893 1.25369 33.3499 0.951903 33.0481C0.34241 32.4386 0 31.612 0 30.75V3.25C0 2.38805 0.34241 1.5614 0.951903 0.951903C1.5614 0.34241 2.38805 0 3.25 0H8.75ZM26.75 0C27.612 0 28.4386 0.34241 29.0481 0.951903C29.6576 1.5614 30 2.38805 30 3.25V30.75C30 31.612 29.6576 32.4386 29.0481 33.0481C28.4386 33.6576 27.612 34 26.75 34H21.25C20.388 34 19.5614 33.6576 18.9519 33.0481C18.3424 32.4386 18 31.612 18 30.75V3.25C18 2.38805 18.3424 1.5614 18.9519 0.951903C19.5614 0.34241 20.388 0 21.25 0H26.75ZM8.75 2.5H3.25C3.05109 2.5 2.86032 2.57902 2.71967 2.71967C2.57902 2.86032 2.5 3.05109 2.5 3.25V30.75C2.5 31.164 2.836 31.5 3.25 31.5H8.75C8.94891 31.5 9.13968 31.421 9.28033 31.2803C9.42098 31.1397 9.5 30.9489 9.5 30.75V3.25C9.5 3.05109 9.42098 2.86032 9.28033 2.71967C9.13968 2.57902 8.94891 2.5 8.75 2.5ZM26.75 2.5H21.25C21.0511 2.5 20.8603 2.57902 20.7197 2.71967C20.579 2.86032 20.5 3.05109 20.5 3.25V30.75C20.5 31.164 20.836 31.5 21.25 31.5H26.75C26.9489 31.5 27.1397 31.421 27.2803 31.2803C27.421 31.1397 27.5 30.9489 27.5 30.75V3.25C27.5 3.05109 27.421 2.86032 27.2803 2.71967C27.1397 2.57902 26.9489 2.5 26.75 2.5Z" fill="white"/>
</svg>
