<svg width="42" height="35" viewBox="0 0 42 35" fill="none" xmlns="http://www.w3.org/2000/svg">
<path d="M24.3125 34.375C27.6501 34.375 30.9127 33.3853 33.6877 31.531C36.4628 29.6768 38.6257 27.0413 39.903 23.9578C41.1802 20.8743 41.5144 17.4813 40.8633 14.2079C40.2121 10.9344 38.6049 7.92758 36.2449 5.56757C33.8849 3.20756 30.8781 1.60037 27.6046 0.949248C24.3312 0.298123 20.9382 0.632304 17.8547 1.90953C14.7712 3.18676 12.1357 5.34967 10.2815 8.12475C8.4272 10.8998 7.4375 14.1624 7.4375 17.5V26.2188L2.375 21.1563L0.40625 23.125L8.84375 31.5625L17.2812 23.125L15.3125 21.1563L10.25 26.2188V17.5C10.25 14.7187 11.0748 11.9999 12.62 9.68729C14.1652 7.37473 16.3614 5.5723 18.931 4.50794C21.5006 3.44359 24.3281 3.1651 27.056 3.70771C29.7838 4.25031 32.2895 5.58964 34.2562 7.55631C36.2229 9.52299 37.5622 12.0287 38.1048 14.7565C38.6474 17.4844 38.3689 20.3119 37.3046 22.8815C36.2402 25.4511 34.4378 27.6473 32.1252 29.1925C29.8126 30.7377 27.0938 31.5625 24.3125 31.5625V34.375Z" fill="white"/>
</svg>
